<?xml version="1.0" encoding="utf-8"?>
<!-- Generator: Adobe Illustrator 25.1.0, SVG Export Plug-In . SVG Version: 6.00 Build 0)  -->
<svg version="1.1" id="Ebene_1" xmlns="http://www.w3.org/2000/svg" xmlns:xlink="http://www.w3.org/1999/xlink" x="0px" y="0px"
	 viewBox="0 0 16 16" enable-background="new 0 0 16 16" xml:space="preserve">
<path fill="#FFFFFF" d="M9.1,0.4C8.5-0.1,7.5-0.1,7,0.4L0.4,7c-0.6,0.6-0.6,1.5,0,2.1L7,15.6c0.6,0.6,1.5,0.6,2.1,0L15.6,9
	c0.6-0.6,0.6-1.5,0-2.1L9.1,0.4z M8,4c0.5,0,1,0.5,0.9,1L8.5,8.5C8.5,8.8,8.3,9,8,9C7.7,9,7.5,8.8,7.4,8.5L7.1,5
	C7.1,4.5,7.4,4.1,8,4C7.9,4,8,4,8,4z M8,10c0.6,0,1,0.4,1,1s-0.4,1-1,1s-1-0.4-1-1S7.4,10,8,10z"/>
</svg>
