<?xml version="1.0" encoding="utf-8"?>
<!-- Generator: Adobe Illustrator 25.1.0, SVG Export Plug-In . SVG Version: 6.00 Build 0)  -->
<svg version="1.1" id="Ebene_1" xmlns="http://www.w3.org/2000/svg" xmlns:xlink="http://www.w3.org/1999/xlink" x="0px" y="0px"
	 viewBox="0 0 16 16" enable-background="new 0 0 16 16" xml:space="preserve">
<path fill="#FFFFFF" d="M16,8c0,4.4-3.6,8-8,8s-8-3.6-8-8s3.6-8,8-8S16,3.6,16,8z M8.3,5.9c-0.8,0.3-2.3,1-4.7,2
	C3.2,8.1,3,8.2,3,8.4c0,0.2,0.3,0.3,0.7,0.5l0.2,0.1c0.4,0.1,1,0.3,1.2,0.3c0.3,0,0.5-0.1,0.9-0.3c2.2-1.5,3.3-2.2,3.4-2.2
	c0.1,0,0.1,0,0.2,0c0,0,0,0.1,0,0.1c0,0.1-1.2,1.2-1.8,1.8C7.5,8.8,7.4,8.9,7.4,8.9C7.3,9,7.3,9.1,7.2,9.1c-0.4,0.4-0.7,0.6,0,1.1
	c0.3,0.2,0.6,0.4,0.9,0.6C8.3,11,8.6,11.2,9,11.4c0.1,0.1,0.2,0.1,0.3,0.2c0.3,0.2,0.6,0.4,1,0.4c0.2,0,0.4-0.2,0.5-0.8
	c0.3-1.4,0.8-4.5,0.9-5.8c0-0.1,0-0.2,0-0.3c0-0.1-0.1-0.2-0.1-0.2c-0.1-0.1-0.2-0.1-0.3-0.1C11,4.8,10.5,5,8.3,5.9z"/>
</svg>
